<svg xmlns="http://www.w3.org/2000/svg" x="0px" y="0px" width="32px" height="32px" viewBox="-588.5 346.5 42 32">
<g opacity="0.33">
	<path d="M-558.558,364.167v-8.054h3.923c1.473,0,2.508,0.714,2.508,2.036c0,0.783-0.449,1.335-0.943,1.565
		c0.391,0.092,0.748,0.322,1.059,0.701c0.311,0.38,0.472,0.852,0.472,1.438c0,0.69-0.265,1.254-0.794,1.68
		c-0.518,0.426-1.22,0.633-2.083,0.633H-558.558z M-556.487,359.196h1.542c0.506,0,0.829-0.264,0.829-0.689
		c0-0.449-0.322-0.714-0.829-0.714h-1.542V359.196z M-556.487,362.441h1.668c0.632,0,1.012-0.311,1.012-0.852
		s-0.403-0.863-1.012-0.863h-1.668V362.441z"/>
	<path d="M-583.385,364.167l3.382-8.1h1.99l3.383,8.1h-2.221l-0.679-1.703h-2.991l-0.679,1.703H-583.385z M-579.864,360.808h1.68
		l-0.84-2.151L-579.864,360.808z"/>
    <polyline fill="none" stroke="#000000" stroke-width="2" stroke-linejoin="bevel" stroke-miterlimit="10" points="-553.5,366.5
        -553.5,369.5 -582.5,369.5 -582.5,366.5 "/>
    <line fill="none" stroke="#000000" stroke-width="2" stroke-miterlimit="10" x1="-567.5" y1="366.5" x2="-567.5" y2="369.5"/>
    <line fill="none" stroke="#000000" stroke-width="2" stroke-miterlimit="10" x1="-575.5" y1="366.5" x2="-575.5" y2="369.5"/>
    <line fill="none" stroke="#000000" stroke-width="2" stroke-miterlimit="10" x1="-560.5" y1="366.5" x2="-560.5" y2="369.5"/>
</g>
</svg>
